<mxfile host="app.diagrams.net" modified="2023-12-14T09:40:40.038Z" agent="Mozilla/5.0 (Windows NT 10.0; Win64; x64) AppleWebKit/537.36 (KHTML, like Gecko) Chrome/120.0.0.0 Safari/537.36" etag="gy6Amq9NW7rqeYb7uyCP" version="22.1.8" type="device">
  <diagram name="Page-1" id="sq2Y6158O5Bwp2u6t442">
    <mxGraphModel dx="996" dy="462" grid="1" gridSize="10" guides="1" tooltips="1" connect="1" arrows="1" fold="1" page="1" pageScale="1" pageWidth="850" pageHeight="1100" math="0" shadow="0">
      <root>
        <mxCell id="0" />
        <mxCell id="1" parent="0" />
        <mxCell id="nqIOGOTRd580z1hGdmQ1-18" style="edgeStyle=orthogonalEdgeStyle;rounded=0;orthogonalLoop=1;jettySize=auto;html=1;exitX=0.5;exitY=1;exitDx=0;exitDy=0;entryX=0.5;entryY=0;entryDx=0;entryDy=0;" edge="1" parent="1" source="nqIOGOTRd580z1hGdmQ1-2" target="nqIOGOTRd580z1hGdmQ1-12">
          <mxGeometry relative="1" as="geometry" />
        </mxCell>
        <mxCell id="nqIOGOTRd580z1hGdmQ1-2" value="" style="rounded=0;whiteSpace=wrap;html=1;fontStyle=1" vertex="1" parent="1">
          <mxGeometry x="125" y="660" width="120" height="60" as="geometry" />
        </mxCell>
        <mxCell id="nqIOGOTRd580z1hGdmQ1-3" value="run_all_apps.py" style="text;strokeColor=none;align=center;fillColor=none;html=1;verticalAlign=middle;whiteSpace=wrap;rounded=0;" vertex="1" parent="1">
          <mxGeometry x="125" y="660" width="120" height="60" as="geometry" />
        </mxCell>
        <mxCell id="nqIOGOTRd580z1hGdmQ1-14" value="" style="html=1;shadow=0;dashed=0;align=center;verticalAlign=middle;shape=mxgraph.arrows2.arrow;dy=0.6;dx=40;direction=south;notch=0;" vertex="1" parent="1">
          <mxGeometry x="150" y="530" width="70" height="100" as="geometry" />
        </mxCell>
        <mxCell id="nqIOGOTRd580z1hGdmQ1-15" value="etnry" style="text;strokeColor=none;align=center;fillColor=none;html=1;verticalAlign=middle;whiteSpace=wrap;rounded=0;rotation=0;" vertex="1" parent="1">
          <mxGeometry x="155" y="550" width="60" height="30" as="geometry" />
        </mxCell>
        <mxCell id="nqIOGOTRd580z1hGdmQ1-31" style="edgeStyle=orthogonalEdgeStyle;rounded=0;orthogonalLoop=1;jettySize=auto;html=1;entryX=0;entryY=0.5;entryDx=0;entryDy=0;" edge="1" parent="1" source="nqIOGOTRd580z1hGdmQ1-16" target="nqIOGOTRd580z1hGdmQ1-28">
          <mxGeometry relative="1" as="geometry" />
        </mxCell>
        <mxCell id="nqIOGOTRd580z1hGdmQ1-32" style="edgeStyle=orthogonalEdgeStyle;rounded=0;orthogonalLoop=1;jettySize=auto;html=1;entryX=0;entryY=0.5;entryDx=0;entryDy=0;" edge="1" parent="1" source="nqIOGOTRd580z1hGdmQ1-16" target="nqIOGOTRd580z1hGdmQ1-29">
          <mxGeometry relative="1" as="geometry" />
        </mxCell>
        <mxCell id="nqIOGOTRd580z1hGdmQ1-16" value="" style="verticalLabelPosition=bottom;verticalAlign=top;html=1;shape=mxgraph.basic.rect;fillColor2=none;strokeWidth=1;size=20;indent=5;" vertex="1" parent="1">
          <mxGeometry x="270" y="820" width="120" height="60" as="geometry" />
        </mxCell>
        <mxCell id="nqIOGOTRd580z1hGdmQ1-34" style="edgeStyle=orthogonalEdgeStyle;rounded=0;orthogonalLoop=1;jettySize=auto;html=1;entryX=0;entryY=0.5;entryDx=0;entryDy=0;" edge="1" parent="1" source="nqIOGOTRd580z1hGdmQ1-17" target="nqIOGOTRd580z1hGdmQ1-30">
          <mxGeometry relative="1" as="geometry" />
        </mxCell>
        <mxCell id="nqIOGOTRd580z1hGdmQ1-17" value="flask app.py&lt;br&gt;" style="text;strokeColor=none;align=center;fillColor=none;html=1;verticalAlign=middle;whiteSpace=wrap;rounded=0;" vertex="1" parent="1">
          <mxGeometry x="270" y="830" width="100" height="40" as="geometry" />
        </mxCell>
        <mxCell id="nqIOGOTRd580z1hGdmQ1-19" style="edgeStyle=orthogonalEdgeStyle;rounded=0;orthogonalLoop=1;jettySize=auto;html=1;exitX=0.5;exitY=1;exitDx=0;exitDy=0;entryX=0.4;entryY=-0.017;entryDx=0;entryDy=0;entryPerimeter=0;" edge="1" parent="1" source="nqIOGOTRd580z1hGdmQ1-2" target="nqIOGOTRd580z1hGdmQ1-16">
          <mxGeometry relative="1" as="geometry" />
        </mxCell>
        <mxCell id="nqIOGOTRd580z1hGdmQ1-53" style="edgeStyle=orthogonalEdgeStyle;rounded=0;orthogonalLoop=1;jettySize=auto;html=1;exitX=1;exitY=0.5;exitDx=0;exitDy=0;entryX=0;entryY=0.75;entryDx=0;entryDy=0;" edge="1" parent="1" source="nqIOGOTRd580z1hGdmQ1-20" target="nqIOGOTRd580z1hGdmQ1-28">
          <mxGeometry relative="1" as="geometry" />
        </mxCell>
        <mxCell id="nqIOGOTRd580z1hGdmQ1-54" style="edgeStyle=orthogonalEdgeStyle;rounded=0;orthogonalLoop=1;jettySize=auto;html=1;exitX=1;exitY=0.5;exitDx=0;exitDy=0;entryX=0;entryY=0.5;entryDx=0;entryDy=0;" edge="1" parent="1" source="nqIOGOTRd580z1hGdmQ1-21" target="nqIOGOTRd580z1hGdmQ1-29">
          <mxGeometry relative="1" as="geometry" />
        </mxCell>
        <mxCell id="nqIOGOTRd580z1hGdmQ1-55" style="edgeStyle=orthogonalEdgeStyle;rounded=0;orthogonalLoop=1;jettySize=auto;html=1;exitX=1;exitY=0.5;exitDx=0;exitDy=0;" edge="1" parent="1" source="nqIOGOTRd580z1hGdmQ1-22">
          <mxGeometry relative="1" as="geometry">
            <mxPoint x="430" y="1102" as="targetPoint" />
          </mxGeometry>
        </mxCell>
        <mxCell id="nqIOGOTRd580z1hGdmQ1-56" style="edgeStyle=orthogonalEdgeStyle;rounded=0;orthogonalLoop=1;jettySize=auto;html=1;exitX=1;exitY=0.5;exitDx=0;exitDy=0;entryX=0;entryY=0.5;entryDx=0;entryDy=0;" edge="1" parent="1" source="nqIOGOTRd580z1hGdmQ1-28" target="nqIOGOTRd580z1hGdmQ1-37">
          <mxGeometry relative="1" as="geometry" />
        </mxCell>
        <mxCell id="nqIOGOTRd580z1hGdmQ1-28" value="upload path" style="rounded=1;arcSize=10;whiteSpace=wrap;html=1;align=center;" vertex="1" parent="1">
          <mxGeometry x="440" y="910" width="100" height="40" as="geometry" />
        </mxCell>
        <mxCell id="nqIOGOTRd580z1hGdmQ1-48" style="edgeStyle=orthogonalEdgeStyle;rounded=0;orthogonalLoop=1;jettySize=auto;html=1;exitX=1;exitY=0.5;exitDx=0;exitDy=0;entryX=0;entryY=0.5;entryDx=0;entryDy=0;" edge="1" parent="1" source="nqIOGOTRd580z1hGdmQ1-29" target="nqIOGOTRd580z1hGdmQ1-38">
          <mxGeometry relative="1" as="geometry" />
        </mxCell>
        <mxCell id="nqIOGOTRd580z1hGdmQ1-29" value="scan path" style="whiteSpace=wrap;html=1;align=center;" vertex="1" parent="1">
          <mxGeometry x="447.5" y="1020" width="100" height="40" as="geometry" />
        </mxCell>
        <mxCell id="nqIOGOTRd580z1hGdmQ1-49" style="edgeStyle=orthogonalEdgeStyle;rounded=0;orthogonalLoop=1;jettySize=auto;html=1;exitX=1;exitY=0.5;exitDx=0;exitDy=0;entryX=0;entryY=0.5;entryDx=0;entryDy=0;" edge="1" parent="1" source="nqIOGOTRd580z1hGdmQ1-30" target="nqIOGOTRd580z1hGdmQ1-39">
          <mxGeometry relative="1" as="geometry" />
        </mxCell>
        <mxCell id="nqIOGOTRd580z1hGdmQ1-30" value="json response path" style="whiteSpace=wrap;html=1;align=center;" vertex="1" parent="1">
          <mxGeometry x="440" y="1100" width="100" height="40" as="geometry" />
        </mxCell>
        <mxCell id="nqIOGOTRd580z1hGdmQ1-50" style="edgeStyle=orthogonalEdgeStyle;rounded=0;orthogonalLoop=1;jettySize=auto;html=1;exitX=0.5;exitY=1;exitDx=0;exitDy=0;entryX=1;entryY=0.25;entryDx=0;entryDy=0;verticalAlign=bottom;horizontal=0;" edge="1" parent="1" source="nqIOGOTRd580z1hGdmQ1-35" target="nqIOGOTRd580z1hGdmQ1-37">
          <mxGeometry relative="1" as="geometry" />
        </mxCell>
        <mxCell id="nqIOGOTRd580z1hGdmQ1-51" style="edgeStyle=orthogonalEdgeStyle;rounded=0;orthogonalLoop=1;jettySize=auto;html=1;exitX=0.5;exitY=1;exitDx=0;exitDy=0;entryX=1;entryY=0.5;entryDx=0;entryDy=0;" edge="1" parent="1" source="nqIOGOTRd580z1hGdmQ1-35" target="nqIOGOTRd580z1hGdmQ1-38">
          <mxGeometry relative="1" as="geometry" />
        </mxCell>
        <mxCell id="nqIOGOTRd580z1hGdmQ1-52" style="edgeStyle=orthogonalEdgeStyle;rounded=0;orthogonalLoop=1;jettySize=auto;html=1;exitX=0.5;exitY=1;exitDx=0;exitDy=0;entryX=1;entryY=0.75;entryDx=0;entryDy=0;" edge="1" parent="1" source="nqIOGOTRd580z1hGdmQ1-35" target="nqIOGOTRd580z1hGdmQ1-39">
          <mxGeometry relative="1" as="geometry" />
        </mxCell>
        <mxCell id="nqIOGOTRd580z1hGdmQ1-35" value="mobsf running" style="shape=ext;margin=3;double=1;whiteSpace=wrap;html=1;align=center;" vertex="1" parent="1">
          <mxGeometry x="750" y="670" width="100" height="40" as="geometry" />
        </mxCell>
        <mxCell id="nqIOGOTRd580z1hGdmQ1-36" value="" style="html=1;shadow=0;dashed=0;align=center;verticalAlign=middle;shape=mxgraph.arrows2.arrow;dy=0.6;dx=40;flipH=1;notch=0;" vertex="1" parent="1">
          <mxGeometry x="265" y="655" width="465" height="70" as="geometry" />
        </mxCell>
        <mxCell id="nqIOGOTRd580z1hGdmQ1-37" value="/api/upload" style="whiteSpace=wrap;html=1;align=center;" vertex="1" parent="1">
          <mxGeometry x="690" y="910" width="100" height="40" as="geometry" />
        </mxCell>
        <mxCell id="nqIOGOTRd580z1hGdmQ1-38" value="/api/scan" style="whiteSpace=wrap;html=1;align=center;" vertex="1" parent="1">
          <mxGeometry x="690" y="1020" width="100" height="40" as="geometry" />
        </mxCell>
        <mxCell id="nqIOGOTRd580z1hGdmQ1-39" value="/api/json" style="whiteSpace=wrap;html=1;align=center;" vertex="1" parent="1">
          <mxGeometry x="680" y="1100" width="100" height="40" as="geometry" />
        </mxCell>
        <mxCell id="nqIOGOTRd580z1hGdmQ1-59" value="" style="group" vertex="1" connectable="0" parent="1">
          <mxGeometry x="20" y="820" width="120" height="330" as="geometry" />
        </mxCell>
        <mxCell id="nqIOGOTRd580z1hGdmQ1-11" value="" style="rounded=0;whiteSpace=wrap;html=1;" vertex="1" parent="nqIOGOTRd580z1hGdmQ1-59">
          <mxGeometry width="120" height="60" as="geometry" />
        </mxCell>
        <mxCell id="nqIOGOTRd580z1hGdmQ1-12" value="streamlit app.py" style="text;strokeColor=none;align=center;fillColor=none;html=1;verticalAlign=middle;whiteSpace=wrap;rounded=0;" vertex="1" parent="nqIOGOTRd580z1hGdmQ1-59">
          <mxGeometry width="120" height="60" as="geometry" />
        </mxCell>
        <mxCell id="nqIOGOTRd580z1hGdmQ1-20" value="uploading of apks&lt;br&gt;" style="ellipse;whiteSpace=wrap;html=1;align=center;" vertex="1" parent="nqIOGOTRd580z1hGdmQ1-59">
          <mxGeometry x="10" y="100" width="100" height="40" as="geometry" />
        </mxCell>
        <mxCell id="nqIOGOTRd580z1hGdmQ1-23" style="edgeStyle=orthogonalEdgeStyle;rounded=0;orthogonalLoop=1;jettySize=auto;html=1;exitX=0.5;exitY=1;exitDx=0;exitDy=0;entryX=0.5;entryY=0;entryDx=0;entryDy=0;" edge="1" parent="nqIOGOTRd580z1hGdmQ1-59" source="nqIOGOTRd580z1hGdmQ1-12" target="nqIOGOTRd580z1hGdmQ1-20">
          <mxGeometry relative="1" as="geometry" />
        </mxCell>
        <mxCell id="nqIOGOTRd580z1hGdmQ1-21" value="scannign of apks" style="ellipse;whiteSpace=wrap;html=1;align=center;" vertex="1" parent="nqIOGOTRd580z1hGdmQ1-59">
          <mxGeometry x="10" y="200" width="100" height="40" as="geometry" />
        </mxCell>
        <mxCell id="nqIOGOTRd580z1hGdmQ1-24" style="edgeStyle=orthogonalEdgeStyle;rounded=0;orthogonalLoop=1;jettySize=auto;html=1;exitX=0.5;exitY=1;exitDx=0;exitDy=0;entryX=0.5;entryY=0;entryDx=0;entryDy=0;" edge="1" parent="nqIOGOTRd580z1hGdmQ1-59" source="nqIOGOTRd580z1hGdmQ1-20" target="nqIOGOTRd580z1hGdmQ1-21">
          <mxGeometry relative="1" as="geometry" />
        </mxCell>
        <mxCell id="nqIOGOTRd580z1hGdmQ1-22" value="saving response in file" style="ellipse;whiteSpace=wrap;html=1;align=center;" vertex="1" parent="nqIOGOTRd580z1hGdmQ1-59">
          <mxGeometry x="10" y="290" width="100" height="40" as="geometry" />
        </mxCell>
        <mxCell id="nqIOGOTRd580z1hGdmQ1-26" style="edgeStyle=orthogonalEdgeStyle;rounded=0;orthogonalLoop=1;jettySize=auto;html=1;exitX=0.5;exitY=1;exitDx=0;exitDy=0;entryX=0.5;entryY=0;entryDx=0;entryDy=0;" edge="1" parent="nqIOGOTRd580z1hGdmQ1-59" source="nqIOGOTRd580z1hGdmQ1-21" target="nqIOGOTRd580z1hGdmQ1-22">
          <mxGeometry relative="1" as="geometry" />
        </mxCell>
      </root>
    </mxGraphModel>
  </diagram>
</mxfile>
